<svg xmlns="http://www.w3.org/2000/svg" version="1.1" xmlns:xlink="http://www.w3.org/1999/xlink" xmlns:svgjs="http://svgjs.dev/svgjs" width="100%" height="100%" viewBox="0 0 1000 600"><rect width="1000" height="600" x="0" y="0" fill="#ffffff"/><g><rect width="333.3333333333333" height="333.3333333333333" rx="13.333333333333334" ry="13.333333333333334" y="227.45129445136337" fill="#ddc6b6" transform="matrix(0.6090755226882119,0,0,0.609075522688212,0,59.95239754800241)" x="205.22911071777344"/><path d="M351.75108855074416 469.11795146679765L351.75108855074416 469.11795146679765Q330.91507807435187 469.11795146679765 321.91186367097254 467.73531496913586L321.91186367097254 467.73531496913586L319.11443633849393 319.56812935923534Q323.06941980854987 319.11796863906636 343.9054302849421 319.11796863906636Q364.7414407613344 319.11796863906636 377.9247189948542 322.8157174118829Q391.10799722837396 326.51346618469944 402.008317523894 334.61635914774087L402.008317523894 334.61635914774087Q424.67712521811706 351.52954049123207 424.67712521811706 392.04400530643926L424.67712521811706 392.04400530643926Q424.67712521811706 428.15332593142153 404.9022078678374 448.63563869910956Q385.09513618040273 469.11795146679765 351.75108855074416 469.11795146679765ZM403.1658736614713 394.45558059305876Q403.1658736614713 361.01506995193535 387.41024845555745 347.47809400971136Q371.6867775867985 333.90896373033246 340.1755271749707 333.90896373033246L340.1755271749707 333.90896373033246L341.333083312548 453.39448059803874Q367.05655303648905 453.39448059803874 384.16266040290986 441.11152380485686L384.16266040290986 441.11152380485686Q403.1658736614713 427.928245571337 403.1658736614713 394.45558059305876Z " fill="#ffffff" transform="matrix(0.6090755226882119,0,0,0.609075522688212,0,59.95239754800241)"/><path d="M653.4567258895089 466.4127351882204L653.4567258895089 466.4127351882204Q633.3074728592405 466.4127351882204 624.6010055004826 465.07567055812535L624.6010055004826 465.07567055812535L621.8957817140113 321.7920934539945Q625.7204084466086 321.3567700860566 645.869661476877 321.3567700860566Q666.0189145071454 321.3567700860566 678.7676702824696 324.93264060840363Q691.5164260577936 328.5085111307506 702.057470467147 336.3443317536328L702.057470467147 336.3443317536328Q723.9791114954484 352.7000525775852 723.9791114954484 391.879155691996L723.9791114954484 391.879155691996Q723.9791114954484 426.79830870587165 704.855977832462 446.605521947046Q685.7017496431946 466.4127351882204 653.4567258895089 466.4127351882204ZM703.1768734132731 394.2112451630919Q703.1768734132731 361.87293783056236 687.9405555354467 348.78214226614415Q672.7353321839015 335.66025217544467 642.2626964282488 335.66025217544467L642.2626964282488 335.66025217544467L643.3820993743748 451.20751183667517Q668.2577203993974 451.20751183667517 684.8000083810375 439.32940279722686L684.8000083810375 439.32940279722686Q703.1768734132731 426.5806470219027 703.1768734132731 394.2112451630919ZM760.2664236657002 359.6341319383103L764.9616971341733 468.43387939650347L745.2477674718427 467.5321381343464L742.138314843715 322.69383471615157L763.4069708201093 321.57443177002557L817.1383122341584 423.2224381835247L815.5524913938132 319.11796419380454L837.5052269483958 320.6726905078685L833.6806002157986 468.8692027644413L820.0301031783173 468.43387939650347L760.2664236657002 359.6341319383103ZM878.7054742710897 401.26970262894207L878.0213946929016 465.5109939260633L858.307465030571 465.7597501363135L860.1109475548851 322.91149640012054L927.0574626384775 320.89035219183745L927.0574626384775 339.48487890804194L879.3584593229965 338.1478142779469L879.3584593229965 383.35925549092576L917.6358211752502 381.8045291768618L916.7651744393744 401.70502599688L878.7054742710897 401.26970262894207ZM1010.5462657037101 469.11795897469153L998.481589506574 427.9177116519977L957.4990038678491 427.0159703898406L948.108456930903 469.11795897469153L928.8298506365104 466.19507350425135L965.7701478586691 322.47617303218266L983.4629333127166 321.1080138758064L1030.0425336820717 466.19507350425135L1010.5462657037101 469.11795897469153ZM975.1917893218965 347.9736845828309L960.6395510222583 413.3654733523594L994.4393010900078 414.26721461451643L975.1917893218965 347.9736845828309ZM1064.9616866959473 452.5445764667702Q1064.9616866959473 458.57691456533814 1061.2614380684752 462.6192029819044Q1057.561189441003 466.6303968721893 1051.311189658466 466.6303968721893Q1045.0300953496478 466.6303968721893 1041.5786029324258 463.83188950687423Q1038.0960159889228 461.0333821415592 1038.0960159889228 455.77840720002314Q1038.0960159889228 450.5234322584871 1042.3559660894578 446.48114384192087Q1046.615916189993 442.46994995163595 1053.549995550718 442.46994995163595L1053.549995550718 442.46994995163595Q1064.9616866959473 442.46994995163595 1064.9616866959473 452.5445764667702L1064.9616866959473 452.5445764667702ZM1160.110937116659 368.3716938233496L1160.110937116659 368.3716938233496L1150.4716339694628 382.6751759127376Q1146.4604400791782 379.78338496857873 1138.5002413511706 377.42020097120155Q1130.5711371494444 375.0881115001057 1124.5077045245953 375.0881115001057L1124.5077045245953 375.0881115001057Q1109.3024811730502 375.0881115001057 1102.4616853911689 386.0333847511157Q1095.6208896092878 397.0097525284069 1095.6208896092878 412.80577187929634Q1095.6208896092878 428.57069670390456 1103.021386864232 440.8841291112908Q1110.4218841191764 453.19756151867705 1122.2688986323433 453.19756151867705L1122.2688986323433 453.19756151867705Q1131.2241222013515 453.19756151867705 1140.7390472434226 448.6266661553291Q1150.253972285494 444.0246762656999 1154.731584069998 437.9923381671319L1154.731584069998 437.9923381671319L1163.904469322975 449.40402931236105Q1158.0897929083762 456.55577035705505 1147.113425131085 461.93512340371626Q1136.1681518800747 467.3144764503774 1121.3671573701863 467.3144764503774L1121.3671573701863 467.3144764503774Q1099.663178025854 467.3144764503774 1088.6868102485628 453.19756151867705Q1077.7104424712713 439.1117411132579 1077.7104424712713 415.8219409285804Q1077.7104424712713 392.53214074390286 1091.609695719003 375.95875823598146Q1105.477854440453 359.41647025434133 1128.0835750469423 359.41647025434133L1128.0835750469423 359.41647025434133Q1142.8845695568311 359.41647025434133 1160.110937116659 368.3716938233496ZM1221.2427757856524 359.16771404409116L1221.2427757856524 359.16771404409116Q1261.758943530158 359.16771404409116 1261.758943530158 410.22492619795025L1261.758943530158 410.22492619795025Q1261.758943530158 435.5358705909109 1248.9790932285528 451.6428352046131Q1236.2303374532285 467.7497998183153 1215.3037212659283 467.7497998183153Q1194.3771050786281 467.7497998183153 1183.4940208801804 453.75726299174005Q1172.6420312080143 439.76472616516475 1172.6420312080143 416.2572642965183L1172.6420312080143 416.2572642965183Q1172.6420312080143 402.824428943006 1177.8037225707067 390.200051272807Q1182.9343194071175 377.54457907632667 1194.4703886574719 368.3716938233496Q1206.0064579078262 359.16771404409116 1221.2427757856524 359.16771404409116ZM1190.3348166620617 412.8990554581402Q1190.3348166620617 428.8194529141548 1197.0512343388177 440.23114405938395Q1203.7676520155742 451.6428352046131 1215.9567063178351 451.6428352046131Q1228.1768551463774 451.6428352046131 1235.4529742961963 441.69258679460404Q1242.7290934460157 431.71124385831365 1242.7290934460157 413.3654733523594L1242.7290934460157 413.3654733523594Q1242.7290934460157 374.83935528985546 1219.6569549453072 374.83935528985546L1219.6569549453072 374.83935528985546Q1205.322378329638 374.83935528985546 1197.8285974958499 385.94010117227185Q1190.3348166620617 397.0097525284069 1190.3348166620617 412.8990554581402ZM1369.8746114101632 465.97741182028244L1350.8447613260205 467.3144764503774L1351.746502588178 422.1030352373986Q1351.746502588178 375.95875823598146 1338.7800851288848 375.95875823598146L1338.7800851288848 375.95875823598146Q1329.5761053496262 375.95875823598146 1319.066155466554 385.7224394883029Q1308.556205583482 395.45502621434304 1304.731578850885 410.00726451398134L1304.731578850885 410.00726451398134Q1302.2751112746637 419.3978114509274 1302.2751112746637 443.8070145817309L1302.2751112746637 443.8070145817309L1303.1768525368211 465.97741182028244L1283.2452611905214 467.3144764503774Q1283.6805845584595 412.4637320902023 1283.6805845584595 399.7149763148782L1283.6805845584595 399.7149763148782L1282.3435199283645 361.40651993634316L1298.015161174129 360.0694553062482L1303.1768525368211 382.2398525447997L1304.078593798978 382.2398525447997Q1304.9492405348537 381.3381112826426 1306.410683270074 379.6590068634536Q1307.872126005294 377.97990244426455 1312.4741158949232 373.96870855397964Q1317.0450112582712 369.92642013741346 1321.5226230427752 366.78587298300437L1321.5226230427752 366.78587298300437Q1333.8360554501614 358.5147289921843 1344.2527217543898 358.5147289921843Q1354.669388058618 358.5147289921843 1360.048741105279 364.7647287747213Q1365.3969996256592 371.0458230835395 1368.1022234121301 382.6751759127376L1368.1022234121301 382.6751759127376L1369.2216263582563 383.1415938069568Q1388.9044614943055 358.5147289921843 1413.780082519328 358.5147289921843L1413.780082519328 358.5147289921843Q1424.725355770338 358.5147289921843 1430.3223705009686 368.5893555073185Q1435.9193852315984 378.66398202245267 1435.9193852315984 395.8903495822809L1435.9193852315984 395.8903495822809L1435.9193852315984 418.2784085048014Q1435.9193852315984 455.21870572696014 1436.6034648097866 466.6303968721893L1436.6034648097866 466.6303968721893L1417.1382913577063 467.99855602856553Q1418.008938093582 424.9948261815575 1418.008938093582 404.4102497833512L1418.008938093582 404.4102497833512Q1418.008938093582 377.76224076029564 1406.161923580415 377.76224076029564Q1394.2838145409664 377.76224076029564 1382.3124219226743 391.41273779777686Q1370.3410293043821 405.0632348352581 1370.3410293043821 417.84308513686346L1370.3410293043821 417.84308513686346L1369.8746114101632 465.97741182028244Z " fill="#ddc6b6" transform="matrix(0.6090755226882119,0,0,0.609075522688212,0,59.95239754800241)"/></g></svg>